<?xml version="1.0" encoding="UTF-8"?>
<!DOCTYPE svg PUBLIC "-//W3C//DTD SVG 1.1//EN" "http://www.w3.org/Graphics/SVG/1.1/DTD/svg11.dtd">
<svg version="1.1" xmlns="http://www.w3.org/2000/svg" xmlns:xlink="http://www.w3.org/1999/xlink" width="400" height="250"  xml:space="preserve">
    <path id="bezier" stroke="none" fill="rgb(43, 43, 43)" d="M 40.59,100.64 C 37.83,103.36 37.83,107.78 40.59,110.5 43.34,113.22 47.8,113.22 50.56,110.5 53.31,107.78 53.31,103.36 50.56,100.64 47.8,97.91 43.34,97.91 40.59,100.64 Z M 59.66,92.38 C 66.91,99.55 67.5,110.8 61.44,118.64 L 45.38,143.52 27.85,116.69 27.99,116.69 C 23.4,109.02 24.43,98.97 31.1,92.38 38.99,84.58 51.78,84.58 59.66,92.38 Z M 59.66,92.38" />
    <ellipse id="oval3" stroke="none" fill="rgb(236, 99, 65)" cx="348" cy="123.5" rx="43" ry="43.5" />
    <path id="bezier11" stroke="none" fill="rgb(214, 66, 29)" d="M 386.5,113.5 L 390.96,125.39 C 390.51,135.88 386.33,146.25 378.41,154.26 366.22,166.59 348.53,169.97 333.33,164.4 L 319.5,142.5 319.5,110.5 386.5,113.5 Z M 386.5,113.5" />
    <path id="bezier2" stroke="none" fill="rgb(43, 43, 43)" d="M 202.7,114.09 L 195.35,114.09 195.35,140.94 182.97,140.94 182.97,123.5 169.67,123.5 169.67,140.94 157.28,140.94 157.28,114.09 149.47,114.09 176.09,88.62 202.7,114.09 Z M 202.7,114.09" />
    <path id="bezier3" stroke="none" fill="rgb(43, 43, 43)" d="M 267.37,204.52 L 258.67,204.52 258.67,219.23 267.37,219.23 267.37,204.52 Z M 254.51,198.11 L 245.8,198.11 245.8,219.23 254.51,219.23 254.51,198.11 Z M 241.26,190.57 L 232.56,190.57 232.56,219.23 241.26,219.23 241.26,190.57 Z M 276.08,184.92 L 276.08,223.75 C 276.08,227.29 273.2,230.16 269.64,230.16 L 230.66,230.16 C 227.11,230.16 224.23,227.29 224.23,223.75 L 224.23,184.92 C 224.23,181.38 227.11,178.51 230.66,178.51 L 269.64,178.51 C 273.2,178.51 276.08,181.38 276.08,184.92 Z M 276.08,184.92" />
    <path id="text" stroke="none" fill="rgb(43, 43, 43)" d="M 258.03,52.05 C 258.68,50.9 259,49.58 259,48.07 259,45.68 258.12,43.87 256.37,42.62 255.35,41.9 253.65,41.21 251.27,40.56 L 251.27,55.63 C 254.53,55.48 256.79,54.28 258.03,52.05 Z M 243.43,32.43 C 244.68,33.5 246.37,34.24 248.49,34.66 L 248.49,21.2 C 245.99,21.29 244.21,22.06 243.15,23.49 242.09,24.92 241.56,26.42 241.56,27.99 241.56,29.88 242.18,31.36 243.43,32.43 Z M 239.59,20.48 C 241.72,18.15 244.71,16.97 248.55,16.93 L 248.55,13.12 251.27,13.12 251.27,16.87 C 255.07,17.14 257.98,18.26 260.02,20.24 262.05,22.21 263.12,24.82 263.21,28.07 L 258.2,28.07 C 258.07,26.62 257.67,25.37 257.02,24.32 255.82,22.39 253.9,21.38 251.27,21.28 L 251.27,35.2 C 255.7,36.45 258.71,37.61 260.29,38.7 262.87,40.49 264.16,43.15 264.16,46.66 264.16,51.74 262.51,55.35 259.2,57.49 257.37,58.68 254.72,59.46 251.27,59.84 L 251.27,65.4 248.55,65.4 248.55,59.84 C 242.99,59.48 239.22,57.51 237.23,53.94 236.14,52.01 235.6,49.4 235.6,46.12 L 240.67,46.12 C 240.82,48.74 241.23,50.64 241.9,51.85 243.08,54.01 245.28,55.22 248.49,55.49 L 248.49,39.87 C 244.36,39.09 241.32,37.78 239.35,35.95 237.38,34.12 236.4,31.58 236.4,28.33 236.4,25.43 237.46,22.81 239.59,20.48 Z M 239.59,20.48" />
    <g id="group">
        <rect id="roundedRectangle" stroke="rgb(43, 43, 43)" stroke-width="4" fill="none" x="77" y="18" width="63" height="40" rx="9" />
        <rect id="rectangle" stroke="none" fill="rgb(43, 43, 43)" x="77" y="23" width="63" height="10" />
    </g>
    <path id="bezier5" stroke="none" fill="rgb(255, 255, 255)" d="M 374.61,141.97 L 347.44,159.72 318.87,141.27 319.05,127.34 347.44,145.8 374.43,128.04 374.61,141.97 Z M 347.79,86.6 L 387.85,112.72 347.79,138.83 307.72,112.72 347.79,86.6 Z M 347.79,86.6" />
    <path id="bezier4" stroke="none" fill="rgb(43, 43, 43)" d="M 95.82,183.83 L 88.6,183.83 88.6,191.05 95.82,191.05 95.82,183.83 Z M 84.99,183.83 L 77.76,183.83 77.76,191.05 84.99,191.05 84.99,183.83 Z M 95.82,194.06 L 88.6,194.06 88.6,201.28 95.82,201.28 95.82,194.06 Z M 84.99,194.06 L 77.76,194.06 77.76,201.28 84.99,201.28 84.99,194.06 Z M 131.95,203.09 L 124.73,203.09 124.73,210.31 131.95,210.31 131.95,203.09 Z M 121.11,203.09 L 113.89,203.09 113.89,210.31 121.11,210.31 121.11,203.09 Z M 110.27,203.09 L 103.05,203.09 103.05,210.31 110.27,210.31 110.27,203.09 Z M 95.82,204.89 L 88.6,204.89 88.6,212.11 95.82,212.11 95.82,204.89 Z M 84.99,204.89 L 77.76,204.89 77.76,212.11 84.99,212.11 84.99,204.89 Z M 131.95,212.11 L 124.73,212.11 124.73,219.33 131.95,219.33 131.95,212.11 Z M 121.11,212.11 L 113.89,212.11 113.89,219.33 121.11,219.33 121.11,212.11 Z M 110.27,212.11 L 103.05,212.11 103.05,219.33 110.27,219.33 110.27,212.11 Z M 95.82,215.12 L 88.6,215.12 88.6,222.34 95.82,222.34 95.82,215.12 Z M 84.99,215.12 L 77.76,215.12 77.76,222.34 84.99,222.34 84.99,215.12 Z M 131.95,221.14 L 124.73,221.14 124.73,228.36 131.95,228.36 131.95,221.14 Z M 121.11,221.14 L 113.89,221.14 113.89,228.36 121.11,228.36 121.11,221.14 Z M 110.27,221.14 L 103.05,221.14 103.05,228.36 110.27,228.36 110.27,221.14 Z M 99.02,179.62 L 99.44,179.62 99.44,179.9 99.47,179.92 99.44,179.92 99.44,199.48 137.37,199.48 137.37,230.16 74.75,230.16 74.75,179.62 75.77,179.62 87.39,171.8 99.02,179.62 Z M 99.02,179.62" />
    <path id="bezier6" stroke="rgb(43, 43, 43)" stroke-width="10" stroke-miterlimit="10" fill="none" d="M 78.12,120.15 L 138.04,120.15" />
    <path id="bezier7" stroke="rgb(43, 43, 43)" stroke-width="10" stroke-miterlimit="10" fill="none" d="M 212.11,123.5 L 287.52,123.5" />
    <path id="bezier8" stroke="rgb(43, 43, 43)" stroke-width="10" stroke-miterlimit="10" fill="none" d="M 106.4,75.2 L 106.73,162.07" />
    <path id="bezier9" stroke="rgb(43, 43, 43)" stroke-width="10" stroke-miterlimit="10" fill="none" d="M 249.82,75.2 L 250.15,162.07" />
    <ellipse id="oval" stroke="none" fill="rgb(43, 43, 43)" cx="290" cy="123.5" rx="11" ry="10.5" />
</svg>
